<svg width="25" height="24" viewBox="0 0 25 24" fill="none" xmlns="http://www.w3.org/2000/svg">
<path d="M23.4912 3.95021C23.4913 3.77357 23.4446 3.60007 23.3559 3.44735C23.2671 3.29464 23.1395 3.16817 22.9859 3.08084C22.8324 2.9935 22.6585 2.94842 22.4819 2.95017C22.3052 2.95193 22.1322 3.00046 21.9805 3.09083C21.3952 3.43921 20.765 3.70601 20.1075 3.88383C19.1684 3.07806 17.9708 2.63713 16.7335 2.64164C15.376 2.6432 14.0724 3.17223 13.0977 4.11702C12.123 5.06181 11.5537 6.3484 11.5098 7.70512C8.83382 7.27838 6.40847 5.88164 4.69629 3.78126C4.59313 3.65609 4.46138 3.55757 4.31215 3.494C4.16293 3.43043 4.0006 3.40368 3.83887 3.41601C3.67723 3.42932 3.52126 3.4818 3.38446 3.56892C3.24766 3.65603 3.13414 3.77516 3.05371 3.91601C2.64124 4.63582 2.40434 5.44276 2.36226 6.27131C2.32018 7.09986 2.4741 7.92666 2.81152 8.68456L2.80957 8.68651C2.65792 8.77991 2.53276 8.91066 2.44607 9.06625C2.35939 9.22185 2.31407 9.39708 2.31445 9.57519C2.31261 9.72211 2.32143 9.86898 2.34082 10.0146C2.44296 11.2729 3.0006 12.4507 3.90918 13.3271C3.84754 13.4446 3.80992 13.5731 3.79852 13.7052C3.78712 13.8373 3.80216 13.9704 3.84277 14.0967C4.23888 15.3308 5.08127 16.3727 6.20508 17.0185C5.06332 17.46 3.8305 17.614 2.61523 17.4668C2.3903 17.4386 2.16246 17.4876 1.96908 17.6059C1.7757 17.7242 1.62826 17.9047 1.55095 18.1178C1.47363 18.3309 1.47104 18.5639 1.54359 18.7787C1.61614 18.9935 1.75953 19.1772 1.95023 19.2998C4.04032 20.646 6.47391 21.3617 8.96 21.3613C11.7793 21.393 14.53 20.4921 16.7842 18.7988C19.0385 17.1054 20.67 14.7145 21.4248 11.998C21.7779 10.8146 21.9581 9.58648 21.96 8.35157C21.96 8.28614 21.96 8.21876 21.959 8.15138C22.4811 7.58831 22.8856 6.92668 23.1487 6.20527C23.4118 5.48387 23.5282 4.7172 23.4912 3.95021ZM20.1846 7.16212C20.0194 7.35746 19.9358 7.60891 19.9512 7.86427C19.9609 8.02927 19.96 8.19527 19.96 8.35157C19.9579 9.39511 19.805 10.4329 19.5059 11.4326C18.8894 13.744 17.515 15.7817 15.6029 17.2192C13.6909 18.6568 11.3517 19.4111 8.96 19.3613C8.10088 19.3616 7.24472 19.2606 6.40922 19.0606C7.47463 18.7172 8.47081 18.1879 9.3516 17.4971C9.51383 17.3693 9.63255 17.1945 9.69149 16.9967C9.75042 16.7988 9.74668 16.5875 9.68077 16.3918C9.61487 16.1961 9.49003 16.0257 9.32338 15.9038C9.15673 15.7819 8.95645 15.7145 8.75 15.7109C7.91883 15.698 7.12513 15.363 6.53613 14.7764C6.68555 14.7481 6.83399 14.7129 6.98145 14.6709C7.19746 14.6094 7.38649 14.477 7.51811 14.295C7.64973 14.1131 7.71627 13.8921 7.70702 13.6677C7.69778 13.4433 7.61328 13.2285 7.46713 13.058C7.32099 12.8874 7.12171 12.7711 6.90137 12.7275C6.41891 12.6323 5.96492 12.427 5.57468 12.1277C5.18445 11.8284 4.8685 11.4432 4.65137 11.002C4.8321 11.0266 5.01398 11.0419 5.19629 11.0479C5.41287 11.0511 5.62488 10.9854 5.80167 10.8603C5.97845 10.7351 6.11084 10.5569 6.17969 10.3516C6.24567 10.1443 6.24227 9.92123 6.17002 9.7161C6.09776 9.51096 5.96059 9.33499 5.7793 9.21485C5.33945 8.92182 4.97914 8.52427 4.73066 8.0578C4.48217 7.59134 4.35326 7.07052 4.35547 6.54201C4.35547 6.47561 4.35742 6.4092 4.36133 6.34377C6.60259 8.43402 9.50965 9.66621 12.5703 9.82326C12.7248 9.82934 12.8787 9.80024 13.0203 9.73816C13.1619 9.67607 13.2875 9.58262 13.3877 9.46486C13.4869 9.34596 13.5571 9.20566 13.5929 9.05501C13.6286 8.90437 13.6289 8.74748 13.5937 8.5967C13.5365 8.35806 13.5074 8.11357 13.5068 7.86818C13.5077 7.01271 13.848 6.19254 14.4529 5.58764C15.0578 4.98274 15.8779 4.64251 16.7334 4.64161C17.1735 4.64043 17.6091 4.7305 18.0127 4.90615C18.4163 5.0818 18.779 5.3392 19.0781 5.66212C19.1935 5.7862 19.3386 5.87871 19.4998 5.93085C19.661 5.98299 19.8328 5.99303 19.999 5.96001C20.4098 5.88006 20.8147 5.7724 21.2109 5.63775C20.9406 6.19072 20.5953 6.70369 20.1846 7.16212Z" fill="#F5EFDB"/>
</svg>
