<svg width="1920" height="7347" viewBox="0 0 1920 7347" fill="none" xmlns="http://www.w3.org/2000/svg">
<path opacity="0.2" d="M1981 1C1548.17 16.8455 628.6 219.468 413 903.195C197.4 1586.92 907.833 2325.29 1290 2609.01C1701.17 2880.55 2276.8 3986.57 1290 6238.31C56.5 9052.98 222.5 9267.64 1290 10700.7L2083.5 11730.5C1816.83 11765.9 1309.1 12036.2 1411.5 12834.4C1513.9 13632.6 416.833 14557.7 -144.5 14920.5" stroke="#ABABAB" stroke-width="2"/>
<path opacity="0.2" d="M-1049 91.5698C-616.167 107.415 303.4 310.038 519 993.765C734.6 1677.49 24.1667 2415.86 -358 2699.58C-769.167 2971.12 -1344.8 4077.14 -358 6328.88C875.5 9143.55 709.5 9358.21 -358 10791.3" stroke="#ABABAB" stroke-width="2"/>
</svg>
