<svg xmlns="http://www.w3.org/2000/svg" width="256" height="256" viewBox="0 0 100 100"><rect width="100" height="100" rx="20" fill="#9d9d9d"></rect><path d="M55.34 82.40Q44.24 82.40 36.09 78.10Q27.94 73.80 23.64 66.25Q19.34 58.70 19.34 49.30L19.34 49.30Q19.34 40.20 24.14 32.95Q28.94 25.70 37.24 21.65Q45.54 17.60 55.74 17.60L55.74 17.60Q60.44 17.60 65.34 18.45Q70.24 19.30 73.04 20.50L73.04 20.50Q73.84 20.90 74.04 21.30Q74.24 21.70 74.34 22.80L74.34 22.80L75.14 35.90Q75.14 36.30 74.64 36.40Q74.14 36.50 73.94 36.20L73.94 36.20Q70.44 28.60 64.74 24.35Q59.04 20.10 51.54 20.10L51.54 20.10Q41.84 20.10 36.44 26.95Q31.04 33.80 31.04 45.60L31.04 45.60Q31.04 55.90 34.64 63.80Q38.24 71.70 44.49 76Q50.74 80.30 58.64 80.30L58.64 80.30Q62.24 80.30 64.14 79.25Q66.04 78.20 66.79 75.75Q67.54 73.30 67.54 68.60L67.54 68.60Q67.54 63.70 66.64 61.50Q65.74 59.30 63.34 58.60Q60.94 57.90 55.64 57.90L55.64 57.90Q55.04 57.90 55.04 57.10L55.04 57.10Q55.04 56.80 55.19 56.55Q55.34 56.30 55.54 56.30L55.54 56.30Q63.84 56.80 69.34 56.80L69.34 56.80Q74.54 56.80 80.14 56.50L80.14 56.50Q80.54 56.50 80.64 57.20Q80.74 57.90 80.34 57.90L80.34 57.90Q78.74 57.80 78.34 58.70Q77.94 59.60 77.94 62.80L77.94 62.80L77.94 69.60Q77.94 74.10 78.24 75.90Q78.54 77.70 78.54 78.40L78.54 78.40Q78.54 79 78.39 79.20Q78.24 79.40 77.64 79.60L77.64 79.60Q64.84 82.40 55.34 82.40L55.34 82.40Z" fill="#000000"></path></svg>